# xmcd CD database file
#
# Track frame offsets:
#	150
#	6810
#	30377
#	49647
#	63222
#	84397
#	98375
#	105077
#	133185
#	143060
#	151895
#	156505
#	162862
#	172855
#	186737
#	206457
#	210462
#	236157
#	242150
#	264032
#	269447
#	285125
#	306647
#	314515
#	332507
#
# Disc length: 4627 seconds
#
# Revision: 0
# Processed by: cddbd v1.5.2PL0 Copyright (c) Steve Scherf et al.
# Submitted via: CDex 1.70beta2
#
DISCID=49121119
DTITLE=William Grant Still - Piano Music
DYEAR=1998
DGENRE=Jazz
TTITLE0=Still, Three Visions 1, Dark Horsemen
TTITLE1=Still, Three Visions 2, Summerland
TTITLE2=Still, Three Visions 3, Radiant pinnacle
TTITLE3=Swanson, The Cuckoo
TTITLE4=Dett, In the Bottoms 1, Prelude
TTITLE5=Dett, In the Bottoms 2, His Song
TTITLE6=Dett, In the Bottoms 3, Honey
TTITLE7=Dett, In the Bottoms 4, Barcarolle
TTITLE8=Dett, In the Bottoms 5, Juba Dance
TTITLE9=Kay, Invention in G
TTITLE10=kay, invention in A
TTITLE11=Kay, Invention in C
TTITLE12=Work Jr., Big Bunch Of Roses
TTITLE13=Still, Seven Traceries 1, Cloud Cradles
TTITLE14=Still, Seven Traceries 2, Mystic Pool
TTITLE15=Still, Seven Traceries 3, Muted laughter
TTITLE16=Still, Seven Traceries 4, Out of Silence
TTITLE17=Still, Seven Traceries 5, Woven Silver
TTITLE18=Still, Seven Traceries 6, Wailing Dawn
TTITLE19=Still, Seven Traceries 7, Bit of Wit
TTITLE20=Peterson, The Gentle Waltz
TTITLE21=Ellington, Come Sunday
TTITLE22=Coleridge-Taylor, Valse Suite 1, Allegro
TTITLE23=Coleridge-Taylor, Valse Suite 2, Andante
TTITLE24=Coleridge-Taylor, Valse Suite 3, Allegro
EXTD=YEAR: 1998
EXTT0=
EXTT1=
EXTT2=
EXTT3=
EXTT4=
EXTT5=
EXTT6=
EXTT7=
EXTT8=
EXTT9=
EXTT10=
EXTT11=
EXTT12=
EXTT13=
EXTT14=
EXTT15=
EXTT16=
EXTT17=
EXTT18=
EXTT19=
EXTT20=
EXTT21=
EXTT22=
EXTT23=
EXTT24=
PLAYORDER=
